<svg width="42" height="20" viewBox="0 0 42 20" fill="none" xmlns="http://www.w3.org/2000/svg">
<path fill-rule="evenodd" clip-rule="evenodd" d="M20.3968 17.7474C20.4324 17.2056 20.5798 16.6663 20.8316 16.1364L20.8602 16.0865C20.7247 16.0722 20.5037 16.0675 20.1877 16.0675C19.8408 16.0675 19.5889 16.077 19.4321 16.0912C19.2563 16.1055 19.1256 16.115 19.0329 16.115C18.8571 16.115 18.7026 16.0366 18.5696 15.8821C18.5553 15.8631 18.5363 15.8394 18.5197 15.818L18.3723 15.6089L13.7032 9.35251L13.5321 9.10776C13.4632 9.02459 13.3896 8.98183 13.3183 8.98183C13.2114 8.98183 13.1567 9.06974 13.1567 9.24082V13.3777C13.1567 14.245 13.2494 14.82 13.4252 15.098C13.6058 15.376 14.0192 15.5851 14.6632 15.7206C14.7891 15.7491 14.8723 15.8037 14.9032 15.8821C14.9127 15.9059 14.9174 15.932 14.9222 15.9653C14.9269 16.1174 14.858 16.1934 14.7131 16.1839C14.6299 16.1744 14.4731 16.1554 14.2402 16.1293C14.0549 16.1007 11.7595 16.0033 11.5314 15.9938C11.2201 15.9938 10.84 15.9986 10.4241 15.9986C9.62101 15.9986 9.11726 16.0223 8.91291 16.0675C8.79173 16.1007 8.69906 16.115 8.64441 16.115C8.49709 16.115 8.42105 16.0366 8.4163 15.8821C8.4163 15.8774 8.4163 15.8726 8.4163 15.8726C8.4163 15.7467 8.48996 15.6635 8.6349 15.6279L8.90816 15.5495C9.20043 15.4758 9.34299 15.2192 9.34299 14.7844C9.34299 14.3804 9.16716 13.5868 8.81074 12.4011L8.3759 10.9089C8.24997 10.4954 8.1573 10.2554 8.08839 10.1889C8.01948 10.1295 7.81989 10.0962 7.49435 10.0962H4.34597C3.91351 10.0962 3.64976 10.139 3.54283 10.2317C3.44065 10.3196 3.30047 10.6214 3.12463 11.1322L2.5496 12.7932C2.2906 13.5488 2.15991 14.1143 2.15991 14.4802C2.15991 14.8366 2.22407 15.0933 2.36426 15.2501C2.4997 15.4069 2.77296 15.5423 3.17215 15.654C3.32898 15.6968 3.4169 15.7752 3.44066 15.8869C3.44066 15.9012 3.44065 15.9154 3.44541 15.9297C3.45016 16.0556 3.36699 16.1198 3.20066 16.1198C3.14126 16.1198 3.03909 16.115 2.9084 16.1103L2.07437 16.0509C1.79637 16.0366 1.47558 16.0271 1.11441 16.0271C0.948081 16.0271 0.817397 16.0318 0.724728 16.0461C0.42771 16.096 0.266128 16.1198 0.237614 16.1198C0.0807888 16.1198 0 16.0508 0 15.9059C0 15.9011 0.00475693 15.8917 0.00475693 15.8869C0.00950921 15.7705 0.0546574 15.692 0.147327 15.654L0.472857 15.5281C0.589288 15.4853 0.746114 15.3 0.940958 14.9816C1.14055 14.6608 1.30213 14.3281 1.42806 13.9788L1.68231 13.2375L3.26482 8.67056L6.15421 0.342165C6.22787 0.114055 6.31104 0.00475693 6.40371 0.00475693C6.49638 0.00475693 6.57004 0.111682 6.63657 0.330287L9.1434 8.6658H9.14578L10.379 12.7646L10.5738 13.3777C10.8423 14.2878 11.0704 14.858 11.251 15.079C11.3104 15.1527 11.3912 15.2216 11.491 15.2833C11.5338 15.2144 11.5694 15.136 11.5979 15.0457C11.7405 14.6465 11.8166 13.9693 11.8166 13.0236C11.8166 9.80159 11.8166 6.57716 11.8166 3.35511C11.8166 2.54247 11.7477 1.97696 11.617 1.6538C11.4815 1.33302 11.2225 1.12154 10.8471 1.01462L10.4194 0.898189C10.2673 0.855418 10.1913 0.77701 10.1913 0.665331C10.1913 0.513258 10.2697 0.43246 10.4289 0.43246C10.5168 0.43246 10.619 0.446715 10.7449 0.475228C11.0419 0.525127 11.5053 0.548888 12.1397 0.548888L12.4652 0.534632L13.1187 0.506119C13.2945 0.506119 13.449 0.501368 13.5725 0.491863C13.8101 0.453845 13.948 0.43246 13.9955 0.43246C14.1357 0.427707 14.2046 0.496617 14.2046 0.641561C14.2046 0.738983 14.1357 0.826902 13.9955 0.89581C13.6248 1.10491 13.3919 1.3354 13.2945 1.59678C13.2018 1.86053 13.1496 2.37614 13.1496 3.15077V7.5894C13.1496 7.75098 13.1781 7.82939 13.228 7.82939L13.3682 7.70346L13.4989 7.56802L17.2365 3.20779C17.8116 2.5401 18.0943 2.01022 18.0943 1.60865C18.0943 1.26649 17.8852 1.04313 17.4694 0.940958C17.2057 0.891059 17.075 0.798393 17.075 0.662953C17.075 0.51088 17.1629 0.430081 17.3435 0.430081C17.3981 0.430081 17.4789 0.439594 17.5811 0.453851C17.8258 0.482365 18.1015 0.49662 18.4008 0.49662L19.204 0.525133L19.8574 0.515633C20.2233 0.515633 20.4657 0.501368 20.5798 0.477607C20.7152 0.449093 20.8031 0.430081 20.8483 0.430081C21.0051 0.430081 21.0883 0.503742 21.1025 0.653439C21.1073 0.774622 20.9671 0.876796 20.6843 0.964713C20.1592 1.14055 19.1588 2.09101 17.6785 3.8256L14.7012 7.33041C14.5753 7.47773 14.5111 7.5989 14.5016 7.69157C14.4968 7.80325 14.5658 7.96483 14.7107 8.16918L15.0766 8.66104L19.2468 14.3329C19.7291 14.9863 20.2519 15.395 20.8245 15.5424L21.1215 15.6208C21.3211 15.3285 21.535 15.1194 21.7702 14.9958C20.1141 13.3302 19.2563 11.2201 19.1969 8.66104C19.1969 8.56837 19.1921 8.4757 19.1921 8.37828C19.1921 6.23975 19.665 4.41725 20.6107 2.91553C21.737 1.1358 23.3195 0.249507 25.3629 0.249507C27.1712 0.249507 28.6468 0.990862 29.7873 2.47595C30.9279 3.96104 31.4934 5.88809 31.4934 8.25473C31.4934 8.39492 31.4934 8.52798 31.4886 8.66818C31.4459 10.0345 31.1821 11.2843 30.7045 12.4296C30.177 13.6866 29.4523 14.6561 28.5398 15.338C28.2476 15.5424 27.9363 15.7277 27.5989 15.8798C27.252 16.0366 26.8766 16.172 26.4774 16.2742C27.0619 16.6639 27.4706 16.9467 27.7011 17.132L28.5137 17.8282L28.6444 17.9399L29.1719 18.389C29.6828 18.8167 30.0986 19.0282 30.4146 19.0282C30.9017 19.0282 31.3271 18.9022 31.6859 18.6527C31.7928 18.5791 31.8712 18.5363 31.9306 18.5315C32.028 18.522 32.0779 18.5791 32.0827 18.6931C32.0969 18.9664 31.8237 19.2539 31.2629 19.5509C30.7069 19.8527 30.1675 20 29.6543 20C28.9581 20 28.1383 19.6436 27.1926 18.9236C26.5676 18.446 26.1304 18.1157 25.8857 17.9351C25.8025 17.8757 25.7431 17.8282 25.7004 17.7997L24.239 16.7922C23.3717 16.1934 22.7373 15.8964 22.3286 15.8964C21.9769 15.8964 21.6514 16.0817 21.3544 16.4524C21.0621 16.8231 20.8815 17.2722 20.8174 17.8021C20.8126 17.852 20.8031 17.8947 20.7984 17.9375C20.7556 18.1205 20.6915 18.2108 20.6035 18.2108C20.4942 18.2108 20.4277 18.149 20.4016 18.0254C20.3826 17.9399 20.3921 17.8401 20.3968 17.7474ZM7.59653 8.26185L6.22787 3.79946L6.15896 3.56185C6.09006 3.32186 6.0164 3.19591 5.93086 3.19116C5.88809 3.18165 5.84294 3.25057 5.79066 3.40502L4.0941 8.28324C4.02994 8.46383 3.99192 8.58976 3.98242 8.66342C3.98242 8.67768 3.98242 8.68718 3.98242 8.69669C3.98242 8.89629 4.11786 8.99371 4.38161 8.99371L4.61922 9.00321H7.24961C7.53713 9.00321 7.68444 8.91054 7.68444 8.72045C7.68444 8.57075 7.62742 8.40917 7.59653 8.26185ZM20.6225 8.6658C20.8031 10.8352 21.4566 12.5888 22.5852 13.9194C23.5927 15.1075 24.719 15.6944 25.9665 15.6944C27.2472 15.6944 28.2808 15.1099 29.0697 13.9408C29.8586 12.7718 30.253 11.2463 30.253 9.35487C30.253 9.12201 30.2483 8.89153 30.2388 8.66342C30.1461 6.61756 29.6257 4.85684 28.6753 3.38126C27.6274 1.73935 26.3514 0.919566 24.8497 0.919566C23.5785 0.919566 22.5496 1.51837 21.756 2.71356C20.9671 3.90639 20.5679 5.45801 20.5679 7.37318C20.5679 7.4706 20.6178 8.48046 20.6225 8.6658ZM32.413 8.6658L35.3023 0.337423C35.376 0.109313 35.4592 0 35.5518 0C35.6445 0 35.7182 0.106925 35.7847 0.32553L38.2963 8.66818H38.2987L39.5319 12.767L39.7267 13.3801C39.9952 14.2901 40.2233 14.8604 40.4039 15.0814C40.5845 15.3047 40.9457 15.4806 41.4993 15.6065C41.6799 15.654 41.7631 15.7467 41.7583 15.8845C41.7536 16.0105 41.6704 16.0699 41.5183 16.0699C41.4637 16.0699 41.3568 16.0651 41.1833 16.0509C40.8815 16.0176 40.3493 16.0009 39.5794 16.0009C38.7715 16.0009 38.2678 16.0247 38.0634 16.0699C37.9422 16.1031 37.8543 16.1174 37.7949 16.1174C37.6524 16.1174 37.5716 16.039 37.5716 15.8845C37.5716 15.8798 37.5716 15.875 37.5716 15.875C37.5716 15.7491 37.6405 15.6659 37.7902 15.6303L38.0587 15.5519C38.3509 15.4782 38.4983 15.2216 38.4983 14.7867C38.4983 14.3828 38.3177 13.5892 37.9613 12.4035L37.5264 10.9113C37.4052 10.4978 37.3078 10.2578 37.2389 10.1913C37.17 10.1319 36.9752 10.0986 36.6449 10.0986H33.4965C33.0688 10.0986 32.8003 10.1414 32.6933 10.234C32.5912 10.322 32.4534 10.6237 32.2751 11.1346L31.7001 12.7955C31.4411 13.5511 31.3104 14.1167 31.3104 14.4826C31.3104 14.839 31.3793 15.0956 31.5148 15.2525C31.655 15.4093 31.9235 15.5447 32.3227 15.6564C32.4795 15.6992 32.5674 15.7776 32.5912 15.8893C32.5912 15.9035 32.5959 15.9178 32.5959 15.932C32.6007 16.058 32.5223 16.1221 32.3559 16.1221C32.2918 16.1221 32.1944 16.1174 32.0589 16.1126L31.2296 16.0532C30.9516 16.039 30.6309 16.0295 30.2649 16.0295C30.0986 16.0295 29.9679 16.0342 29.8752 16.0485C29.5782 16.0984 29.4166 16.1221 29.3881 16.1221C29.2361 16.1221 29.1553 16.0532 29.1553 15.9083C29.1553 15.9035 29.1553 15.894 29.1553 15.8893C29.16 15.7728 29.2052 15.6944 29.3026 15.6564L29.6234 15.5305C29.7398 15.4877 29.8966 15.3024 30.0915 14.984C30.2911 14.6632 30.4526 14.3305 30.5786 13.9812L30.8328 13.2399L32.413 8.6658ZM36.747 8.26185L35.3784 3.79946L35.3095 3.56185C35.2406 3.32186 35.1669 3.19591 35.0861 3.19116C35.0433 3.18165 34.9982 3.25057 34.9435 3.40502L33.247 8.28324C33.1828 8.46383 33.1448 8.58976 33.1401 8.66342C33.1353 8.67768 33.1353 8.68718 33.1353 8.69669C33.1353 8.89629 33.2707 8.99371 33.5345 8.99371L33.7721 9.00321H36.4025C36.6948 9.00321 36.8373 8.91054 36.8373 8.72045C36.835 8.57075 36.7779 8.40917 36.747 8.26185Z" fill="white"/>
</svg>
