<svg width="104" height="8" viewBox="0 0 104 8" fill="none" xmlns="http://www.w3.org/2000/svg">
<path d="M37.5294 7.99581C34.8956 7.99581 33.1871 6.09683 33.1871 4.12039V3.87543C33.1871 1.86548 34.8956 0 37.5294 0C40.1633 0 41.8864 1.86548 41.8864 3.87543V4.12039C41.8864 6.09683 40.178 7.99581 37.5294 7.99581ZM40.4774 3.89636C40.4774 2.4559 39.4305 1.17456 37.5294 1.17456C35.6284 1.17456 34.5983 2.458 34.5983 3.89636V4.07642C34.5983 5.51688 35.6451 6.82335 37.5294 6.82335C39.4138 6.82335 40.4774 5.51688 40.4774 4.07642V3.89636ZM7.77179 7.70479L6.78985 5.86234H2.4224L1.46558 7.70479H0L4.01989 0.267993H5.18189L9.26878 7.70479H7.77179ZM4.56634 1.71892L2.94792 4.8469H6.2413L4.56634 1.71892ZM15.6106 8C12.9411 8 11.7016 6.54698 11.7016 4.61659V0.267993H13.0877V4.63334C13.0877 6.0068 13.9921 6.82335 15.7111 6.82335C17.4761 6.82335 18.2005 6.0068 18.2005 4.63334V0.267993H19.597V4.60612C19.597 6.45486 18.4245 7.99581 15.6106 7.99581V8ZM27.3688 1.42999V7.71107H25.9723V1.42999H22.7228V0.267993H30.6182V1.42999H27.3688ZM54.325 7.71107V1.81942L53.9566 2.46846L50.8411 7.7027H50.1607L47.0788 2.46846L46.7103 1.81942V7.70479H45.3473V0.267993H47.2798L50.2109 5.37032L50.5585 5.99843L50.904 5.37032L53.8079 0.267993H55.7173V7.70479L54.325 7.71107ZM66.2738 7.71107L65.2897 5.86862H60.9265L59.978 7.71107H58.5124L62.5323 0.274274H63.6922L67.7686 7.70479L66.2738 7.71107ZM63.0683 1.71892L61.4499 4.8469H64.7433L63.0683 1.71892ZM73.3965 1.42999V7.71107H72.0021V1.42999H68.7527V0.267993H76.6459V1.42999H73.3965ZM83.6367 1.42999V7.71107H82.2402V1.42999H78.9908V0.267993H86.8882V1.42999H83.6367ZM90.3261 7.71107V0.971473C90.883 0.971473 91.107 0.669982 91.107 0.267993H91.7037V7.70479L90.3261 7.71107ZM102.631 2.37425C101.83 1.60858 100.767 1.17853 99.6598 1.17247C97.6729 1.17247 96.5548 2.53546 96.5548 3.95289V4.09736C96.5548 5.50432 97.6833 6.81916 99.7603 6.81916C100.847 6.79869 101.887 6.37221 102.675 5.62366L103.512 6.5051C102.467 7.47877 101.088 8.01263 99.6598 7.99581C96.8459 7.99581 95.1374 6.16383 95.1374 4.15389V3.90892C95.1374 1.89898 97.0029 0 99.7268 0C101.301 0 102.731 0.659513 103.495 1.48443L102.631 2.37425ZM38.4507 2.58362C38.3293 2.50573 38.182 2.47918 38.0411 2.50979C37.9001 2.54041 37.7771 2.6257 37.699 2.74693L36.4303 4.72337C36.3519 4.84455 36.3246 4.99183 36.3544 5.13304C36.3842 5.27426 36.4687 5.39794 36.5894 5.4771V5.4771C36.6494 5.51552 36.7165 5.54172 36.7867 5.5542C36.8569 5.56668 36.9288 5.5652 36.9984 5.54983C37.0681 5.53447 37.134 5.50553 37.1924 5.46467C37.2508 5.42381 37.3006 5.37183 37.3389 5.3117L38.6077 3.34991C38.6468 3.29027 38.6738 3.2235 38.6871 3.15342C38.7004 3.08334 38.6997 3.01133 38.6851 2.94151C38.6705 2.87169 38.6423 2.80543 38.6021 2.74653C38.5619 2.68764 38.5104 2.63725 38.4507 2.59827V2.58362Z" fill="white"/>
</svg>
