<svg width="77" height="17" viewBox="0 0 77 17" fill="none" xmlns="http://www.w3.org/2000/svg">
<path fill-rule="evenodd" clip-rule="evenodd" d="M7.65316 14.2852C7.93749 14.905 8.30435 15.4648 8.7423 15.9554C7.77668 16.4731 6.76471 16.704 5.66154 16.704C2.38082 16.704 0 14.5499 0 11.112C0 7.64957 2.50231 5.49552 5.66154 5.49552C6.78576 5.49552 7.67236 5.73872 8.56561 6.21446C8.14908 6.72404 7.80548 7.30224 7.54441 7.93876C7.00547 7.72371 6.45084 7.62584 5.87959 7.62584C3.93579 7.62584 2.4292 8.86061 2.4292 11.112C2.4292 13.2423 3.88741 14.5981 5.97726 14.5981C6.57602 14.5981 7.1288 14.4901 7.65316 14.2852ZM14.2511 5.49552C17.4824 5.49552 19.815 7.77136 19.815 11.112C19.815 14.4289 17.4824 16.704 14.2511 16.704C11.0444 16.704 8.712 14.4289 8.712 11.112C8.712 7.77136 11.0444 5.49552 14.2511 5.49552ZM14.2511 7.55317C12.4534 7.55317 11.1412 8.93346 11.1412 11.112C11.1412 13.2669 12.4534 14.6463 14.2511 14.6463C16.0982 14.6463 17.3858 13.2669 17.3858 11.112C17.3858 8.93346 16.0982 7.55317 14.2511 7.55317ZM21.3461 16.462V5.73736H23.7507V16.462H21.3461ZM21.0296 2.44494C21.0296 1.62206 21.7349 0.96843 22.5362 0.96843C23.3382 0.96843 24.0428 1.62206 24.0428 2.44494C24.0428 3.29246 23.3382 3.97074 22.5362 3.97074C21.7349 3.97074 21.0296 3.29246 21.0296 2.44494ZM25.8491 6.4157C27.3557 5.83473 29.2027 5.4955 30.7813 5.4955C33.5272 5.4955 35.2765 6.53656 35.2765 9.56261V16.462H32.8957V9.78079C32.8957 8.23143 31.9238 7.67402 30.5871 7.67402C29.7365 7.67402 28.887 7.79507 28.2546 7.98878V16.462H25.8491V6.4157ZM37.2908 0H39.6954V6.02836C40.2055 5.76198 41.202 5.4956 42.1492 5.4956C45.2593 5.4956 47.5917 7.4804 47.5917 10.9183C47.5917 14.3798 45.2838 16.7039 41.2997 16.7039C39.7447 16.7039 38.3842 16.3893 37.2908 16.002V0ZM39.6954 14.4289C40.1572 14.5735 40.765 14.6462 41.3717 14.6462C43.5828 14.6462 45.1625 13.4361 45.1625 10.9665C45.1625 8.88424 43.6805 7.64964 41.8582 7.64964C40.9108 7.64964 40.1817 7.89229 39.6954 8.15868V14.4289ZM54.5398 9.27172C54.5398 8.10961 53.6646 7.57777 52.4747 7.57777C51.2354 7.57777 50.2635 7.94055 49.3648 8.44884V6.36654C50.3119 5.8347 51.5266 5.49547 52.8635 5.49547C55.2196 5.49547 56.8961 6.46386 56.8961 9.15067V16.2438C55.8758 16.5102 54.4185 16.6802 53.2038 16.6802C50.4096 16.6802 48.3683 15.8328 48.3683 13.4115C48.3683 11.233 50.239 10.1682 53.3489 10.1682H54.5398V9.27172ZM54.5398 11.7657H53.5195C51.8423 11.7657 50.7491 12.2494 50.7491 13.3388C50.7491 14.4526 51.7701 14.8882 53.2276 14.8882C53.5926 14.8882 54.1028 14.84 54.5398 14.7671V11.7657ZM58.6454 13.557C59.6419 14.3072 60.8318 14.7673 61.925 14.7673C62.9946 14.7673 63.6991 14.4043 63.6991 13.557C63.6991 12.685 63.0675 12.3704 61.6824 12.0076C59.4474 11.4993 58.4994 10.6038 58.4994 8.73966C58.4994 6.56022 60.152 5.49561 62.3384 5.49561C63.5531 5.49561 64.525 5.76199 65.4238 6.31849V8.52147C64.4766 7.84411 63.5531 7.43222 62.4115 7.43222C61.3667 7.43222 60.8082 7.94051 60.8082 8.64252C60.8082 9.34435 61.269 9.70805 62.5083 10.0464C64.9629 10.5791 66.0316 11.4993 66.0316 13.4361C66.0316 15.6873 64.3068 16.7039 61.9743 16.7039C60.7105 16.7039 59.4474 16.3656 58.6454 15.8328V13.557ZM69.3236 11.6448V11.693C69.4697 13.6051 71.1214 14.6462 72.7977 14.6462C74.2797 14.6462 75.3491 14.3071 76.4177 13.6051V15.7119C75.4458 16.3893 74.0123 16.7038 72.628 16.7038C69.2753 16.7038 66.9912 14.5735 66.9912 11.1847C66.9912 7.77141 69.226 5.49558 72.1908 5.49558C75.3245 5.49558 76.8066 7.50503 76.8066 10.4338V11.6448H69.3236ZM74.547 10.0954C74.4987 8.4243 73.6728 7.50503 72.1179 7.50503C70.7326 7.50503 69.7125 8.47342 69.3966 10.0954H74.547Z" fill="white"/>
</svg>
