<svg width="60" height="16" viewBox="0 0 60 16" fill="none" xmlns="http://www.w3.org/2000/svg">
<path d="M11.3955 6.84846H6.42299C6.29486 6.84846 6.19137 6.95195 6.19137 7.08008V9.5113C6.19137 9.63943 6.29486 9.74456 6.42299 9.74456H8.36304V12.7639C8.36304 12.7639 7.92772 12.9117 6.72361 12.9117C5.30267 12.9117 3.31827 12.3926 3.31827 8.02957C3.31827 3.66489 5.3848 3.09158 7.32484 3.09158C9.00369 3.09158 9.72813 3.38727 10.1881 3.53019C10.3326 3.57454 10.4657 3.42998 10.4657 3.30185L11.0209 0.952775C11.0209 0.891995 11.0012 0.819714 10.9322 0.772076C10.745 0.639016 9.60492 0 6.72361 0C3.40369 0 0 1.41273 0 8.20041C0 14.9897 3.89815 16 7.18357 16C9.9039 16 11.5532 14.837 11.5532 14.837C11.6205 14.7992 11.6287 14.7039 11.6287 14.6612V7.08008C11.6271 6.95195 11.5236 6.84846 11.3955 6.84846Z" fill="white"/>
<path d="M37.0191 0.813345C37.0191 0.683571 36.9172 0.580078 36.7891 0.580078H33.9899C33.8618 0.580078 33.7583 0.685214 33.7583 0.813345V6.22279H29.3952V0.813345C29.3952 0.683571 29.2917 0.580078 29.1636 0.580078H26.3644C26.2363 0.580078 26.1328 0.685214 26.1328 0.813345V15.463C26.1328 15.5928 26.2363 15.6979 26.3644 15.6979H29.1636C29.2917 15.6979 29.3952 15.5928 29.3952 15.463V9.19774H33.7583L33.7501 15.463C33.7501 15.5928 33.8535 15.6979 33.9817 15.6979H36.7874C36.9156 15.6979 37.0174 15.5928 37.0191 15.463V0.813345V0.813345Z" fill="white"/>
<path d="M16.679 2.73527C16.679 1.72665 15.8708 0.911865 14.8737 0.911865C13.8782 0.911865 13.0684 1.72665 13.0684 2.73527C13.0684 3.74226 13.8766 4.55868 14.8737 4.55868C15.8708 4.55868 16.679 3.74226 16.679 2.73527Z" fill="white"/>
<path d="M16.4786 12.3714C16.4786 11.9952 16.4786 5.60998 16.4786 5.60998C16.4786 5.48184 16.3751 5.37671 16.247 5.37671H13.456C13.3279 5.37671 13.2129 5.50813 13.2129 5.6379C13.2129 5.6379 13.2129 13.7742 13.2129 15.3266C13.2129 15.6108 13.3903 15.6962 13.6203 15.6962C13.6203 15.6962 14.8112 15.6962 16.1353 15.6962C16.4112 15.6962 16.4786 15.5615 16.4786 15.3217C16.4786 14.8009 16.4786 12.7673 16.4786 12.3714Z" fill="white"/>
<path d="M47.6572 5.39819H44.8793C44.7512 5.39819 44.6477 5.50333 44.6477 5.6331V12.8167C44.6477 12.8167 43.9413 13.3325 42.9409 13.3325C41.9389 13.3325 41.6728 12.8775 41.6728 11.8968C41.6728 10.9144 41.6728 5.6331 41.6728 5.6331C41.6728 5.50333 41.5693 5.39819 41.4411 5.39819H38.6222C38.4958 5.39819 38.3906 5.50333 38.3906 5.6331C38.3906 5.6331 38.3906 9.45897 38.3906 12.3715C38.3906 15.284 40.0136 15.997 42.2477 15.997C44.0793 15.997 45.5578 14.985 45.5578 14.985C45.5578 14.985 45.6284 15.5189 45.6596 15.5814C45.6908 15.6438 45.7746 15.7078 45.8633 15.7078L47.6572 15.6996C47.7836 15.6996 47.8888 15.5945 47.8888 15.4664L47.8871 5.6331C47.8888 5.50333 47.7853 5.39819 47.6572 5.39819Z" fill="white"/>
<path d="M55.2501 5.06961C53.6714 5.06961 52.5988 5.77433 52.5988 5.77433V0.813345C52.5988 0.683571 52.4953 0.580078 52.3671 0.580078H49.5597C49.4316 0.580078 49.3281 0.685214 49.3281 0.813345V15.463C49.3281 15.5928 49.4316 15.6979 49.5597 15.6979C49.5597 15.6979 51.5064 15.6979 51.508 15.6979C51.5951 15.6979 51.6624 15.6519 51.7117 15.5731C51.7593 15.4942 51.83 14.8979 51.83 14.8979C51.83 14.8979 52.9782 15.9854 55.1515 15.9854C57.7027 15.9854 59.1663 14.691 59.1663 10.1751C59.1663 5.65934 56.8304 5.06961 55.2501 5.06961ZM54.1544 13.3242C53.1901 13.2947 52.538 12.8577 52.538 12.8577V8.21868C52.538 8.21868 53.1819 7.82279 53.9737 7.75215C54.9741 7.6618 55.9384 7.96406 55.9384 10.3509C55.9384 12.8675 55.5031 13.3636 54.1544 13.3242Z" fill="white"/>
<path d="M24.5251 5.3751H22.4257C22.4257 5.3751 22.4224 2.60221 22.4224 2.60057C22.4224 2.49544 22.3682 2.44287 22.2466 2.44287H19.385C19.2733 2.44287 19.2142 2.49215 19.2142 2.59893V5.46546C19.2142 5.46546 17.7801 5.81207 17.6832 5.83999C17.5863 5.86792 17.5156 5.95662 17.5156 6.0634V7.86545C17.5156 7.99523 17.6191 8.09872 17.7472 8.09872H19.2142C19.2142 8.09872 19.2142 9.98291 19.2142 12.4322C19.2142 15.6519 21.4729 15.9673 22.9957 15.9673C23.6922 15.9673 24.5251 15.7439 24.6631 15.693C24.7468 15.6618 24.7945 15.5763 24.7945 15.4827L24.7961 13.5016C24.7961 13.3718 24.6877 13.2683 24.5645 13.2683C24.4429 13.2683 24.1292 13.3176 23.8072 13.3176C22.7756 13.3176 22.4257 12.8379 22.4257 12.217C22.4257 11.5961 22.4257 8.09872 22.4257 8.09872H24.5251C24.6532 8.09872 24.7567 7.99358 24.7567 7.86545V5.60837C24.7567 5.48024 24.6532 5.3751 24.5251 5.3751Z" fill="white"/>
</svg>
