<svg width="164" height="29" viewBox="0 0 164 29" fill="none" xmlns="http://www.w3.org/2000/svg">
<path d="M112.805 12.8604H109.846V16H108.933V8.89062H113.298V9.66211H109.846V12.0938H112.805V12.8604ZM119.679 12.8555C119.676 13.1094 119.653 13.3665 119.611 13.627C119.572 13.8841 119.51 14.1331 119.426 14.374C119.341 14.6149 119.232 14.8395 119.098 15.0479C118.968 15.2562 118.812 15.4385 118.63 15.5947C118.447 15.751 118.237 15.8747 118 15.9658C117.765 16.0537 117.502 16.0977 117.209 16.0977C116.916 16.0977 116.651 16.0537 116.413 15.9658C116.179 15.8747 115.97 15.751 115.788 15.5947C115.606 15.4385 115.448 15.2562 115.314 15.0479C115.181 14.8363 115.07 14.61 114.982 14.3691C114.898 14.1283 114.834 13.8792 114.792 13.6221C114.749 13.3649 114.727 13.1094 114.723 12.8555V12.0449C114.727 11.791 114.748 11.5355 114.787 11.2783C114.829 11.0179 114.893 10.7673 114.977 10.5264C115.065 10.2855 115.174 10.0609 115.304 9.85254C115.438 9.64095 115.596 9.45703 115.778 9.30078C115.96 9.14128 116.169 9.01758 116.403 8.92969C116.641 8.83854 116.906 8.79297 117.199 8.79297C117.492 8.79297 117.757 8.83854 117.995 8.92969C118.233 9.01758 118.443 9.13965 118.625 9.2959C118.807 9.45215 118.963 9.63607 119.094 9.84766C119.227 10.056 119.336 10.2806 119.421 10.5215C119.509 10.7624 119.572 11.013 119.611 11.2734C119.653 11.5339 119.676 11.791 119.679 12.0449V12.8555ZM118.786 12.0352C118.783 11.8659 118.771 11.6901 118.752 11.5078C118.732 11.3223 118.698 11.14 118.649 10.9609C118.604 10.7786 118.542 10.6061 118.464 10.4434C118.386 10.2773 118.288 10.1325 118.171 10.0088C118.054 9.88184 117.915 9.78255 117.756 9.71094C117.596 9.63607 117.411 9.59863 117.199 9.59863C116.991 9.59863 116.807 9.63607 116.647 9.71094C116.488 9.78581 116.349 9.88672 116.232 10.0137C116.115 10.1374 116.017 10.2822 115.939 10.4482C115.861 10.611 115.798 10.7835 115.749 10.9658C115.703 11.1449 115.669 11.3271 115.646 11.5127C115.627 11.695 115.615 11.8691 115.612 12.0352V12.8555C115.615 13.0215 115.627 13.1973 115.646 13.3828C115.669 13.5684 115.705 13.7523 115.754 13.9346C115.803 14.1136 115.866 14.2861 115.944 14.4521C116.022 14.6182 116.12 14.7646 116.237 14.8916C116.354 15.0153 116.493 15.1146 116.652 15.1895C116.812 15.2643 116.997 15.3018 117.209 15.3018C117.42 15.3018 117.606 15.2643 117.765 15.1895C117.928 15.1146 118.067 15.0153 118.18 14.8916C118.298 14.7646 118.394 14.6198 118.469 14.457C118.547 14.291 118.609 14.1185 118.654 13.9395C118.703 13.7572 118.735 13.5732 118.752 13.3877C118.771 13.2021 118.783 13.0247 118.786 12.8555V12.0352ZM123.615 13.0996H122.194V16H121.296V8.89062H123.38C123.712 8.89714 124.025 8.94434 124.318 9.03223C124.611 9.12012 124.866 9.25195 125.085 9.42773C125.306 9.60352 125.478 9.82487 125.602 10.0918C125.729 10.3555 125.793 10.6663 125.793 11.0244C125.793 11.2555 125.758 11.4671 125.69 11.6592C125.625 11.8512 125.534 12.0254 125.417 12.1816C125.299 12.3379 125.159 12.4762 124.997 12.5967C124.834 12.7171 124.655 12.8197 124.46 12.9043L125.968 15.9414L125.963 16H125.011L123.615 13.0996ZM122.194 12.3574H123.405C123.607 12.3542 123.797 12.3232 123.976 12.2646C124.155 12.2028 124.311 12.1149 124.445 12.001C124.582 11.887 124.689 11.7487 124.767 11.5859C124.845 11.4199 124.884 11.2295 124.884 11.0146C124.884 10.7868 124.847 10.5882 124.772 10.4189C124.697 10.2464 124.593 10.1032 124.46 9.98926C124.326 9.87207 124.167 9.78418 123.981 9.72559C123.799 9.66699 123.599 9.63607 123.38 9.63281H122.194V12.3574ZM137.628 12.8604H134.669V16H133.756V8.89062H138.121V9.66211H134.669V12.0938H137.628V12.8604ZM139.879 8.89062H144.176V9.67676H142.472V15.2188H144.176V16H139.879V15.2188H141.544V9.67676H139.879V8.89062ZM150.684 15.0674C150.385 15.4189 150.041 15.6794 149.654 15.8486C149.267 16.0179 148.842 16.1009 148.38 16.0977C148.087 16.0944 147.817 16.0505 147.569 15.9658C147.325 15.8779 147.105 15.7591 146.91 15.6094C146.715 15.4564 146.544 15.2773 146.397 15.0723C146.251 14.8672 146.127 14.6458 146.026 14.4082C145.929 14.1673 145.854 13.9167 145.802 13.6562C145.753 13.3926 145.727 13.1273 145.723 12.8604V12.0352C145.727 11.7715 145.749 11.5094 145.792 11.249C145.837 10.9854 145.906 10.7331 145.997 10.4922C146.088 10.2513 146.202 10.0283 146.339 9.82324C146.475 9.61491 146.638 9.43587 146.827 9.28613C147.019 9.13314 147.235 9.0127 147.476 8.9248C147.717 8.83691 147.987 8.79297 148.287 8.79297C148.619 8.79297 148.925 8.84505 149.205 8.94922C149.485 9.05013 149.729 9.19661 149.937 9.38867C150.146 9.57747 150.313 9.80697 150.44 10.0771C150.567 10.3441 150.645 10.6436 150.675 10.9756H149.781C149.745 10.7705 149.69 10.5817 149.615 10.4092C149.54 10.2334 149.441 10.0837 149.317 9.95996C149.197 9.83626 149.052 9.74023 148.883 9.67188C148.713 9.60026 148.516 9.56445 148.292 9.56445C148.077 9.56445 147.887 9.60189 147.721 9.67676C147.554 9.74837 147.41 9.84603 147.286 9.96973C147.162 10.0934 147.06 10.2383 146.978 10.4043C146.897 10.5671 146.83 10.7396 146.778 10.9219C146.726 11.1042 146.689 11.2897 146.666 11.4785C146.643 11.6673 146.632 11.8496 146.632 12.0254V12.8604C146.635 13.0394 146.65 13.2249 146.676 13.417C146.705 13.6058 146.749 13.7913 146.807 13.9736C146.866 14.1559 146.941 14.3285 147.032 14.4912C147.123 14.654 147.232 14.7972 147.359 14.9209C147.489 15.0446 147.639 15.1439 147.808 15.2188C147.978 15.2904 148.17 15.3278 148.385 15.3311C148.508 15.3343 148.637 15.3294 148.77 15.3164C148.907 15.3034 149.039 15.2773 149.166 15.2383C149.293 15.1992 149.412 15.1471 149.522 15.082C149.633 15.0137 149.726 14.9258 149.801 14.8184L149.81 13.2217H148.365V12.46H150.67L150.684 15.0674ZM153.282 8.89062L154.439 12.4453L155.689 8.89062H156.812V16H155.933V13.1631L156.006 10.1943L154.693 14.0225H154.175L152.969 10.2969L153.043 13.1631V16H152.164V8.89062H153.282ZM161.89 14.1592H159.517L158.946 16H158.042L160.337 8.89062H161.094L163.35 16H162.452L161.89 14.1592ZM159.761 13.373H161.651L160.713 10.2871L159.761 13.373Z" fill="#708599"/>
<path d="M9.432 16L8.712 13.66H4.158L3.456 16H0.36L4.86 3.4H8.028L12.528 16H9.432ZM6.444 6.19L4.914 11.176H7.956L6.444 6.19ZM21.1418 11.374V3.4H24.2378V11.302C24.2378 12.79 23.7518 13.99 22.7798 14.902C21.8078 15.802 20.5058 16.252 18.8738 16.252C17.2418 16.252 15.9398 15.802 14.9678 14.902C13.9958 13.99 13.5098 12.79 13.5098 11.302V3.4H16.6058V11.374C16.6058 12.118 16.8098 12.688 17.2178 13.084C17.6258 13.48 18.1778 13.678 18.8738 13.678C19.5698 13.678 20.1218 13.48 20.5298 13.084C20.9378 12.688 21.1418 12.118 21.1418 11.374ZM25.8504 3.4H35.7504V6.01H32.3484V16H29.2524V6.01H25.8504V3.4ZM48.3497 10.51C48.3497 12.214 47.8457 13.6 46.8377 14.668C45.8417 15.724 44.4197 16.252 42.5717 16.252C40.7237 16.252 39.2957 15.724 38.2877 14.668C37.2917 13.6 36.7937 12.214 36.7937 10.51V8.89C36.7937 7.186 37.2917 5.806 38.2877 4.75C39.2957 3.682 40.7237 3.148 42.5717 3.148C44.4197 3.148 45.8417 3.682 46.8377 4.75C47.8457 5.806 48.3497 7.186 48.3497 8.89V10.51ZM45.2537 8.728C45.2537 7.804 45.0257 7.072 44.5697 6.532C44.1137 5.992 43.4477 5.722 42.5717 5.722C41.6957 5.722 41.0297 5.992 40.5737 6.532C40.1177 7.072 39.8897 7.804 39.8897 8.728V10.672C39.8897 11.596 40.1177 12.328 40.5737 12.868C41.0297 13.408 41.6957 13.678 42.5717 13.678C43.4477 13.678 44.1137 13.408 44.5697 12.868C45.0257 12.328 45.2537 11.596 45.2537 10.672V8.728ZM53.5748 16H50.4788V3.4H59.3348V5.974H53.5748V8.692H58.7948V11.266H53.5748V16ZM61.219 3.4H64.315V13.426H69.877V16H61.219V3.4ZM82.6622 10.51C82.6622 12.214 82.1582 13.6 81.1502 14.668C80.1542 15.724 78.7322 16.252 76.8842 16.252C75.0362 16.252 73.6082 15.724 72.6002 14.668C71.6042 13.6 71.1062 12.214 71.1062 10.51V8.89C71.1062 7.186 71.6042 5.806 72.6002 4.75C73.6082 3.682 75.0362 3.148 76.8842 3.148C78.7322 3.148 80.1542 3.682 81.1502 4.75C82.1582 5.806 82.6622 7.186 82.6622 8.89V10.51ZM79.5662 8.728C79.5662 7.804 79.3382 7.072 78.8822 6.532C78.4262 5.992 77.7602 5.722 76.8842 5.722C76.0082 5.722 75.3422 5.992 74.8862 6.532C74.4302 7.072 74.2022 7.804 74.2022 8.728V10.672C74.2022 11.596 74.4302 12.328 74.8862 12.868C75.3422 13.408 76.0082 13.678 76.8842 13.678C77.7602 13.678 78.4262 13.408 78.8822 12.868C79.3382 12.328 79.5662 11.596 79.5662 10.672V8.728ZM93.5263 3.4L95.8843 11.662L97.4503 3.4H100.492L97.4683 16H94.5703L92.0863 7.198L89.6023 16H86.7043L83.6803 3.4H86.7223L88.2883 11.662L90.6463 3.4H93.5263Z" fill="white"/>
</svg>
