<svg width="75" height="17" viewBox="0 0 75 17" fill="none" xmlns="http://www.w3.org/2000/svg">
<path d="M66.1061 5.99079C67.1053 5.99079 67.9154 5.18076 67.9154 4.18155C67.9154 3.18234 67.1053 2.37231 66.1061 2.37231C65.1069 2.37231 64.2969 3.18234 64.2969 4.18155C64.2969 5.18076 65.1069 5.99079 66.1061 5.99079Z" fill="white"/>
<path d="M40.2629 11.8965C41.1505 11.8965 41.6625 11.2309 41.6284 10.5823C41.6113 10.2409 41.5772 10.019 41.543 9.84834C40.9968 7.49292 39.0852 5.75195 36.8151 5.75195C34.1183 5.75195 31.9336 8.19272 31.9336 11.1967C31.9336 14.2007 34.1183 16.6415 36.8151 16.6415C38.5049 16.6415 39.7167 16.0271 40.5872 15.0542C41.0139 14.5762 40.9286 13.8423 40.4165 13.4839C39.9898 13.1937 39.4607 13.2961 39.0681 13.6204C38.6926 13.9447 37.9758 14.5933 36.8151 14.5933C35.4497 14.5933 34.289 13.4156 34.033 11.8624H40.2629V11.8965ZM36.7981 7.81721C38.027 7.81721 39.0852 8.77304 39.4778 10.0873H34.1183C34.5109 8.75597 35.5691 7.81721 36.7981 7.81721Z" fill="white"/>
<path d="M32.0376 6.82707C32.0376 6.31502 31.6621 5.90538 31.1842 5.82004C29.6992 5.59815 28.2996 6.14434 27.4974 7.15137V7.01482C27.4974 6.38329 26.9854 5.99072 26.4733 5.99072C25.9101 5.99072 25.4492 6.45157 25.4492 7.01482V15.3783C25.4492 15.9245 25.8589 16.4024 26.405 16.4365C27.0024 16.4706 27.4974 16.0098 27.4974 15.4124V11.0941C27.4974 9.18249 28.9311 7.61221 30.9111 7.8341C30.9793 7.8341 31.0476 7.8341 31.1159 7.8341C31.6279 7.79996 32.0376 7.35618 32.0376 6.82707Z" fill="white"/>
<path d="M67.1302 7.9196C67.1302 7.35635 66.6694 6.89551 66.1061 6.89551C65.5429 6.89551 65.082 7.35635 65.082 7.9196C65.082 7.95374 65.082 15.0883 65.082 15.4126C65.082 15.9758 65.5429 16.4367 66.1061 16.4367C66.6694 16.4367 67.1302 15.9758 67.1302 15.4126C67.1302 15.1053 67.1302 7.97081 67.1302 7.9196Z" fill="white"/>
<path d="M51.9045 2.2531C51.9045 1.68985 51.4436 1.229 50.8804 1.229C50.3171 1.229 49.8563 1.68985 49.8563 2.2531V6.81033C49.1565 6.11053 48.286 5.76916 47.2448 5.76916C44.548 5.76916 42.3633 8.20993 42.3633 11.2139C42.3633 14.218 44.548 16.6587 47.2448 16.6587C48.286 16.6587 49.1735 16.3003 49.8733 15.6005C49.9587 16.0784 50.3854 16.4368 50.8804 16.4368C51.4436 16.4368 51.9045 15.976 51.9045 15.4127C51.9045 15.4127 51.9045 2.2531 51.9045 2.2531ZM47.2619 14.6276C45.6916 14.6276 44.4285 13.1085 44.4285 11.2139C44.4285 9.33643 45.6916 7.80029 47.2619 7.80029C48.8322 7.80029 50.0952 9.31936 50.0952 11.2139C50.0952 13.1085 48.8151 14.6276 47.2619 14.6276Z" fill="white"/>
<path d="M62.59 2.2531C62.59 1.68985 62.1291 1.229 61.5659 1.229C61.0026 1.229 60.5418 1.68985 60.5418 2.2531V6.81033C59.842 6.11053 58.9715 5.76916 57.9304 5.76916C55.2336 5.76916 53.0488 8.20993 53.0488 11.2139C53.0488 14.218 55.2336 16.6587 57.9304 16.6587C58.9715 16.6587 59.8591 16.3003 60.5589 15.6005C60.6442 16.0784 61.0709 16.4368 61.5659 16.4368C62.1291 16.4368 62.59 15.976 62.59 15.4127C62.59 15.4127 62.59 2.2531 62.59 2.2531ZM57.9304 14.6276C56.3601 14.6276 55.097 13.1085 55.097 11.2139C55.097 9.33643 56.3601 7.80029 57.9304 7.80029C59.5006 7.80029 60.7637 9.31936 60.7637 11.2139C60.7637 13.1085 59.5006 14.6276 57.9304 14.6276Z" fill="white"/>
<path d="M72.3188 15.4296V7.81712H73.2235C73.7014 7.81712 74.1281 7.45869 74.1622 6.96371C74.1963 6.43459 73.7696 5.99082 73.2576 5.99082H72.3188V4.55708C72.3188 4.0109 71.9092 3.53299 71.363 3.49885C70.7656 3.46471 70.2706 3.92556 70.2706 4.52295V6.00789H69.4172C68.9393 6.00789 68.5126 6.36632 68.4785 6.8613C68.4443 7.39042 68.871 7.83419 69.3831 7.83419H70.2536V15.4466C70.2536 16.0099 70.7144 16.4707 71.2777 16.4707C71.8751 16.4366 72.3188 15.9928 72.3188 15.4296Z" fill="white"/>
<path d="M19.0482 8.63655C19.0482 7.4759 18.1094 6.55422 16.9659 6.55422C16.4026 6.55422 15.8906 6.7761 15.5151 7.13454C14.0813 6.11044 12.1185 5.44478 9.93374 5.35944L10.8896 0.887551L13.996 1.55321C14.0301 2.33835 14.6787 2.96988 15.4809 2.96988C16.3002 2.96988 16.9659 2.30422 16.9659 1.48494C16.9659 0.665663 16.3002 0 15.4809 0C14.9006 0 14.3886 0.341366 14.1496 0.836346L10.6847 0.102411C10.5823 0.0853424 10.4799 0.10241 10.4116 0.153615C10.3263 0.20482 10.2751 0.290161 10.258 0.392571L9.1998 5.37651C6.98092 5.44478 4.98394 6.11044 3.53313 7.15161C3.15763 6.79317 2.64558 6.57128 2.08233 6.57128C0.921687 6.57128 0 7.51004 0 8.65361C0 9.50703 0.512049 10.2239 1.22892 10.5482C1.19478 10.753 1.17771 10.9578 1.17771 11.1797C1.17771 14.3886 4.91566 17 9.5241 17C14.1325 17 17.8705 14.4056 17.8705 11.1797C17.8705 10.9749 17.8534 10.753 17.8193 10.5482C18.5361 10.2239 19.0482 9.48996 19.0482 8.63655ZM4.74498 10.1215C4.74498 9.30221 5.41064 8.63655 6.22992 8.63655C7.0492 8.63655 7.71486 9.30221 7.71486 10.1215C7.71486 10.9408 7.0492 11.6064 6.22992 11.6064C5.41064 11.6235 4.74498 10.9408 4.74498 10.1215ZM13.0572 14.0643C12.0331 15.0884 10.0873 15.1566 9.5241 15.1566C8.94377 15.1566 6.99799 15.0713 5.99096 14.0643C5.83735 13.9106 5.83735 13.6717 5.99096 13.5181C6.14458 13.3645 6.38353 13.3645 6.53715 13.5181C7.18574 14.1667 8.5512 14.3886 9.5241 14.3886C10.497 14.3886 11.8795 14.1667 12.511 13.5181C12.6647 13.3645 12.9036 13.3645 13.0572 13.5181C13.1938 13.6717 13.1938 13.9106 13.0572 14.0643ZM12.7841 11.6235C11.9649 11.6235 11.2992 10.9578 11.2992 10.1386C11.2992 9.31928 11.9649 8.65361 12.7841 8.65361C13.6034 8.65361 14.2691 9.31928 14.2691 10.1386C14.2691 10.9408 13.6034 11.6235 12.7841 11.6235Z" fill="white"/>
</svg>
